<svg id="Layer_1" data-name="Layer 1" xmlns="http://www.w3.org/2000/svg" xmlns:xlink="http://www.w3.org/1999/xlink" viewBox="0 0 2228 1235"><defs><style>.cls-1{fill:none;}.cls-2{fill:#39c;opacity:0.11;}.cls-3{fill:url(#logo);}</style><pattern id="logo" data-name="logo" x="-0.38" y="0.14" width="169.46" height="225.83" patternUnits="userSpaceOnUse" viewBox="0 0 169.46 225.83"><rect class="cls-1" width="169.46" height="225.83"/><path class="cls-2" d="M68.85,224.84l-21,30L46,257.61,37.33,270l-1.9,2.72-39.82,57-7.81-11.19-6-8.58-6.75-9.67-2.28-3.26-17.05-24.43-1.89-2.7-8.59-12.32-1.9-2.71-21-30,32.43-46.45,2.89-4.13,4.23-6.07,1.48-2.12L-4.39,120l24.45,35,.91,1.3,7,10.06,1.48,2.12,4.08,5.84,3,4.32Zm-85.38-67.6H7.76L6.16,155-4.39,139.85-14.93,155Zm-15.7,22.5,5,9.93,2.28,4.5,10.47,20.73,2.27,4.51,8,15.76,21.72-43,4.54-9,1.15-2.29.46-.9h0l-1.48-2.12L16.68,170l-1.59-2.28H-14.47v15.44h34l-5.31,10.5H-14.47v16.17l-10.47-20.73V169.29l-2.28,3.26-3.53,5.07-1.48,2.12Zm-20.05,61.5,6.39-41.94-.16.23L-49,203.72l-14.75,21.12,9.54,13.66,1.89,2.71Zm87.19,12.32L31,226.85l-4.35-29.52h0l-25,49.46L-4.23,258.4l-5.87-11.61-25-49.46-8.58,56.25h0l1.89,2.71,14.55,20.85,2.28,3.26V222.46l10.47,20.73V295.4l2.27,3.26,7.81,11.19L33,256.29l1.91-2.73Zm20-28.72L40.33,203.9l-2.92-4.19,6.13,41.48,1.9-2.72Z"/><path class="cls-2" d="M238.31,224.84l-21,30-1.9,2.72L206.79,270l-1.9,2.72-39.82,57-7.8-11.19-6-8.58-6.75-9.67-2.28-3.26-17.05-24.43-1.89-2.7-8.59-12.32-1.9-2.71-21-30,32.43-46.45,2.89-4.13,4.23-6.07,1.49-2.12L165.07,120l24.45,35,.91,1.3,7,10.06,1.48,2.12,4.08,5.84,3,4.32Zm-85.38-67.6h24.29l-1.6-2.28-10.55-15.11L154.53,155Zm-15.7,22.5,5,9.93,2.28,4.5L155,214.9l2.28,4.51,8,15.76,21.72-43,4.54-9,1.15-2.29.46-.9h0l-1.48-2.12L186.14,170l-1.59-2.28H155v15.44h33.95l-5.31,10.5H155v16.17l-10.47-20.73V169.29l-2.28,3.26-3.53,5.07-1.48,2.12Zm-20,61.5,6.39-41.94-.16.23-2.93,4.19-14.74,21.12,9.53,13.66,1.89,2.71Zm87.19,12.32-3.94-26.71-4.35-29.52h0l-25,49.46-5.86,11.61-5.87-11.61-25-49.46-8.58,56.25h0l1.89,2.71,14.55,20.85,2.28,3.26V222.46L155,243.19V295.4l2.28,3.26,7.8,11.19,37.4-53.56,1.9-2.73Zm20-28.72L209.79,203.9l-2.92-4.19L213,241.19l1.9-2.72Z"/><path class="cls-2" d="M68.85-1l-21,30.05L46,31.78,37.33,44.17l-1.9,2.72-39.82,57L-12.2,92.73l-6-8.59-6.75-9.67-2.28-3.26L-44.27,46.79l-1.89-2.71-8.59-12.31-1.9-2.72-21-30,32.43-46.45,2.89-4.14,4.23-6.07,1.48-2.12,32.2-46.12,24.45,35L21-69.57l7,10.06,1.48,2.12,4.08,5.83,3,4.32Zm-85.38-67.6H7.76l-1.6-2.29L-4.39-86l-10.54,15.1ZM-32.23-46.1l5,9.93,2.28,4.51,10.47,20.73,2.27,4.5,8,15.77,21.72-43,4.54-9,1.15-2.28.46-.9h0L22.16-48l-5.48-7.85-1.59-2.28H-14.47v15.43h34l-5.31,10.5H-14.47V-16L-24.94-36.71V-56.54l-2.28,3.26-3.53,5.06-1.48,2.12ZM-52.28,15.41l6.39-41.95-.16.23L-49-22.11-63.73-1l9.54,13.66,1.89,2.71ZM34.91,27.73,31,1,26.62-28.51h0L1.63,21-4.23,32.57-10.1,21l-25-49.46-8.58,56.26h0l1.89,2.7,14.55,20.86,2.28,3.26V-3.37l10.47,20.72V69.56l2.27,3.27L-4.39,84,33,30.45l1.91-2.72ZM55-1l-14.62-21-2.92-4.18,6.13,41.48,1.9-2.72Z"/><path class="cls-2" d="M153.58,111.93l-21,30-1.9,2.72-8.64,12.38-1.9,2.72-39.82,57-7.8-11.18-6-8.59-6.75-9.67-2.28-3.26-17-24.42L38.57,157,30,144.68,28.08,142l-21-30L39.54,65.47l2.89-4.13,4.23-6.07,1.48-2.12L80.34,7l24.45,35,.91,1.3,7,10.06,1.48,2.13,4.08,5.83,3,4.32ZM68.2,44.32H92.49L90.89,42,80.34,26.93,69.8,42ZM52.5,66.82l5,9.93,2.28,4.51L70.26,102l2.28,4.51,8,15.76,21.72-43,4.54-9L107.91,68l.46-.91h0L106.89,65l-5.48-7.84-1.59-2.29H70.26V70.26h33.95L98.9,80.76H70.26V96.93L59.79,76.21V56.37l-2.28,3.27L54,64.7,52.5,66.82Zm-20,61.51,6.39-42-.16.23-2.93,4.2L21,111.93l9.54,13.65,1.89,2.72Zm87.19,12.32-3.94-26.71-4.35-29.53h0l-25,49.46L80.5,145.49l-5.87-11.62-25-49.46-8.58,56.25h0L43,143.37l14.55,20.85,2.28,3.27V109.54l10.47,20.73v52.21l2.28,3.26,7.8,11.19,37.4-53.56,1.9-2.72Zm20-28.72L125.06,91l-2.92-4.18,6.13,41.47,1.9-2.72Z"/><path class="cls-2" d="M238.31-1l-21,30.05-1.9,2.72-8.64,12.39-1.9,2.72-39.82,57-7.8-11.19-6-8.59-6.75-9.67-2.28-3.26L125.19,46.79l-1.89-2.71-8.59-12.31-1.9-2.72-21-30,32.43-46.45,2.89-4.14,4.23-6.07,1.49-2.12,32.19-46.12,24.45,35,.91,1.31,7,10.06,1.48,2.12L203-51.56l3,4.32Zm-85.38-67.6h24.29l-1.6-2.29L165.07-86l-10.54,15.1ZM137.23-46.1l5,9.93,2.28,4.51L155-10.93l2.28,4.5,8,15.77,21.72-43,4.54-9,1.15-2.28.46-.9h0L191.62-48l-5.48-7.85-1.59-2.28H155v15.43h33.95l-5.31,10.5H155V-16L144.52-36.71V-56.54l-2.28,3.26-3.53,5.06-1.48,2.12Zm-20,61.51,6.39-41.95-.16.23-2.93,4.2L105.74-1l9.53,13.66,1.89,2.71Zm87.19,12.32L200.43,1l-4.35-29.53h0L171.09,21l-5.86,11.62L159.36,21l-25-49.46L125.8,27.75h0l1.89,2.7,14.55,20.86,2.28,3.26V-3.37L155,17.35V69.56l2.28,3.27L165.07,84l37.4-53.56,1.9-2.72ZM224.42-1l-14.63-21-2.92-4.18L213,15.36l1.9-2.72Z"/></pattern></defs><title>intranet-background</title><rect class="cls-3" width="2228" height="1235"/><text x="-0.38" y="0.14"/></svg>